<mxfile host="app.diagrams.net" modified="2023-01-10T15:18:39.620Z" agent="5.0 (Windows NT 10.0; Win64; x64) AppleWebKit/537.36 (KHTML, like Gecko) Chrome/108.0.0.0 Safari/537.36" version="20.7.4" etag="Qxtbq1WWHMtoYpFvlqht" type="github">
  <diagram id="OxjSvAu7QKIk8ba51eTJ" name="第 1 页">
    <mxGraphModel dx="244" dy="126" grid="0" gridSize="10" guides="1" tooltips="1" connect="1" arrows="1" fold="1" page="1" pageScale="1" pageWidth="827" pageHeight="1169" math="1" shadow="0">
      <root>
        <mxCell id="0" />
        <mxCell id="1" parent="0" />
        <mxCell id="LL7gGCwHM5cZaGb05igH-27" value="" style="endArrow=none;html=1;rounded=0;" edge="1" parent="1">
          <mxGeometry width="50" height="50" relative="1" as="geometry">
            <mxPoint x="160" y="240" as="sourcePoint" />
            <mxPoint x="400" y="240" as="targetPoint" />
          </mxGeometry>
        </mxCell>
        <mxCell id="LL7gGCwHM5cZaGb05igH-28" value="" style="endArrow=none;html=1;rounded=0;dashed=1;" edge="1" parent="1">
          <mxGeometry width="50" height="50" relative="1" as="geometry">
            <mxPoint x="160" y="280" as="sourcePoint" />
            <mxPoint x="400" y="280" as="targetPoint" />
          </mxGeometry>
        </mxCell>
        <mxCell id="LL7gGCwHM5cZaGb05igH-29" value="" style="endArrow=none;html=1;rounded=0;" edge="1" parent="1">
          <mxGeometry width="50" height="50" relative="1" as="geometry">
            <mxPoint x="160" y="320" as="sourcePoint" />
            <mxPoint x="400" y="320" as="targetPoint" />
          </mxGeometry>
        </mxCell>
        <mxCell id="LL7gGCwHM5cZaGb05igH-30" value="" style="endArrow=none;html=1;rounded=0;dashed=1;" edge="1" parent="1">
          <mxGeometry width="50" height="50" relative="1" as="geometry">
            <mxPoint x="160" y="360" as="sourcePoint" />
            <mxPoint x="400" y="360" as="targetPoint" />
          </mxGeometry>
        </mxCell>
        <mxCell id="LL7gGCwHM5cZaGb05igH-31" value="" style="endArrow=none;html=1;rounded=0;dashed=1;startArrow=none;" edge="1" parent="1" source="LL7gGCwHM5cZaGb05igH-51">
          <mxGeometry width="50" height="50" relative="1" as="geometry">
            <mxPoint x="240" y="200" as="sourcePoint" />
            <mxPoint x="240" y="440" as="targetPoint" />
          </mxGeometry>
        </mxCell>
        <mxCell id="LL7gGCwHM5cZaGb05igH-33" value="" style="endArrow=none;html=1;rounded=0;" edge="1" parent="1">
          <mxGeometry width="50" height="50" relative="1" as="geometry">
            <mxPoint x="280" y="200" as="sourcePoint" />
            <mxPoint x="280" y="440" as="targetPoint" />
          </mxGeometry>
        </mxCell>
        <mxCell id="LL7gGCwHM5cZaGb05igH-34" value="" style="endArrow=none;html=1;rounded=0;" edge="1" parent="1">
          <mxGeometry width="50" height="50" relative="1" as="geometry">
            <mxPoint x="360" y="200" as="sourcePoint" />
            <mxPoint x="360" y="440" as="targetPoint" />
          </mxGeometry>
        </mxCell>
        <mxCell id="LL7gGCwHM5cZaGb05igH-35" value="" style="endArrow=none;html=1;rounded=0;dashed=1;" edge="1" parent="1">
          <mxGeometry width="50" height="50" relative="1" as="geometry">
            <mxPoint x="320" y="200" as="sourcePoint" />
            <mxPoint x="320" y="440" as="targetPoint" />
          </mxGeometry>
        </mxCell>
        <mxCell id="LL7gGCwHM5cZaGb05igH-36" value="" style="endArrow=none;html=1;rounded=0;" edge="1" parent="1">
          <mxGeometry width="50" height="50" relative="1" as="geometry">
            <mxPoint x="200" y="200" as="sourcePoint" />
            <mxPoint x="200" y="440" as="targetPoint" />
          </mxGeometry>
        </mxCell>
        <mxCell id="LL7gGCwHM5cZaGb05igH-37" value="" style="endArrow=none;html=1;rounded=0;" edge="1" parent="1">
          <mxGeometry width="50" height="50" relative="1" as="geometry">
            <mxPoint x="160" y="400" as="sourcePoint" />
            <mxPoint x="400" y="400" as="targetPoint" />
          </mxGeometry>
        </mxCell>
        <mxCell id="LL7gGCwHM5cZaGb05igH-38" value="" style="whiteSpace=wrap;html=1;aspect=fixed;fillColor=#f8cecc;strokeColor=#b85450;" vertex="1" parent="1">
          <mxGeometry x="192" y="231" width="17" height="17" as="geometry" />
        </mxCell>
        <mxCell id="LL7gGCwHM5cZaGb05igH-39" value="" style="triangle;whiteSpace=wrap;html=1;rotation=90;fillColor=#d5e8d4;strokeColor=#82b366;" vertex="1" parent="1">
          <mxGeometry x="192" y="274" width="15.5" height="18" as="geometry" />
        </mxCell>
        <mxCell id="LL7gGCwHM5cZaGb05igH-42" value="" style="whiteSpace=wrap;html=1;aspect=fixed;fillColor=#f8cecc;strokeColor=#b85450;" vertex="1" parent="1">
          <mxGeometry x="192" y="311" width="17" height="17" as="geometry" />
        </mxCell>
        <mxCell id="LL7gGCwHM5cZaGb05igH-43" value="" style="whiteSpace=wrap;html=1;aspect=fixed;fillColor=#f8cecc;strokeColor=#b85450;" vertex="1" parent="1">
          <mxGeometry x="272" y="311" width="17" height="17" as="geometry" />
        </mxCell>
        <mxCell id="LL7gGCwHM5cZaGb05igH-44" value="" style="whiteSpace=wrap;html=1;aspect=fixed;fillColor=#f8cecc;strokeColor=#b85450;" vertex="1" parent="1">
          <mxGeometry x="272" y="231" width="17" height="17" as="geometry" />
        </mxCell>
        <mxCell id="LL7gGCwHM5cZaGb05igH-46" value="" style="triangle;whiteSpace=wrap;html=1;rotation=-90;fillColor=#d5e8d4;strokeColor=#82b366;" vertex="1" parent="1">
          <mxGeometry x="233" y="310" width="15.5" height="18" as="geometry" />
        </mxCell>
        <mxCell id="LL7gGCwHM5cZaGb05igH-48" value="" style="triangle;whiteSpace=wrap;html=1;rotation=90;fillColor=#d5e8d4;strokeColor=#82b366;" vertex="1" parent="1">
          <mxGeometry x="272.75" y="271" width="15.5" height="18" as="geometry" />
        </mxCell>
        <mxCell id="LL7gGCwHM5cZaGb05igH-51" value="" style="ellipse;whiteSpace=wrap;html=1;aspect=fixed;fillColor=#fff2cc;strokeColor=#d6b656;" vertex="1" parent="1">
          <mxGeometry x="231.75" y="271" width="18" height="18" as="geometry" />
        </mxCell>
        <mxCell id="LL7gGCwHM5cZaGb05igH-52" value="" style="endArrow=none;html=1;rounded=0;dashed=1;" edge="1" parent="1" target="LL7gGCwHM5cZaGb05igH-51">
          <mxGeometry width="50" height="50" relative="1" as="geometry">
            <mxPoint x="240" y="200" as="sourcePoint" />
            <mxPoint x="240" y="440" as="targetPoint" />
          </mxGeometry>
        </mxCell>
        <mxCell id="LL7gGCwHM5cZaGb05igH-47" value="" style="triangle;whiteSpace=wrap;html=1;rotation=-90;fillColor=#d5e8d4;strokeColor=#82b366;" vertex="1" parent="1">
          <mxGeometry x="233" y="230" width="15.5" height="18" as="geometry" />
        </mxCell>
        <mxCell id="LL7gGCwHM5cZaGb05igH-53" value="" style="triangle;whiteSpace=wrap;html=1;rotation=-90;fillColor=#d5e8d4;strokeColor=#82b366;" vertex="1" parent="1">
          <mxGeometry x="313.25" y="310" width="15.5" height="18" as="geometry" />
        </mxCell>
        <mxCell id="LL7gGCwHM5cZaGb05igH-54" value="" style="ellipse;whiteSpace=wrap;html=1;aspect=fixed;fillColor=#fff2cc;strokeColor=#d6b656;" vertex="1" parent="1">
          <mxGeometry x="312" y="271" width="18" height="18" as="geometry" />
        </mxCell>
        <mxCell id="LL7gGCwHM5cZaGb05igH-55" value="" style="triangle;whiteSpace=wrap;html=1;rotation=-90;fillColor=#d5e8d4;strokeColor=#82b366;" vertex="1" parent="1">
          <mxGeometry x="313.25" y="230" width="15.5" height="18" as="geometry" />
        </mxCell>
        <mxCell id="LL7gGCwHM5cZaGb05igH-62" value="" style="whiteSpace=wrap;html=1;aspect=fixed;fillColor=#f8cecc;strokeColor=#b85450;" vertex="1" parent="1">
          <mxGeometry x="352" y="231" width="17" height="17" as="geometry" />
        </mxCell>
        <mxCell id="LL7gGCwHM5cZaGb05igH-63" value="" style="triangle;whiteSpace=wrap;html=1;rotation=90;fillColor=#d5e8d4;strokeColor=#82b366;" vertex="1" parent="1">
          <mxGeometry x="352" y="274" width="15.5" height="18" as="geometry" />
        </mxCell>
        <mxCell id="LL7gGCwHM5cZaGb05igH-64" value="" style="whiteSpace=wrap;html=1;aspect=fixed;fillColor=#f8cecc;strokeColor=#b85450;" vertex="1" parent="1">
          <mxGeometry x="352" y="311" width="17" height="17" as="geometry" />
        </mxCell>
        <mxCell id="LL7gGCwHM5cZaGb05igH-65" value="" style="triangle;whiteSpace=wrap;html=1;rotation=90;fillColor=#d5e8d4;strokeColor=#82b366;" vertex="1" parent="1">
          <mxGeometry x="192" y="354" width="15.5" height="18" as="geometry" />
        </mxCell>
        <mxCell id="LL7gGCwHM5cZaGb05igH-66" value="" style="triangle;whiteSpace=wrap;html=1;rotation=90;fillColor=#d5e8d4;strokeColor=#82b366;" vertex="1" parent="1">
          <mxGeometry x="272.75" y="351" width="15.5" height="18" as="geometry" />
        </mxCell>
        <mxCell id="LL7gGCwHM5cZaGb05igH-67" value="" style="ellipse;whiteSpace=wrap;html=1;aspect=fixed;fillColor=#fff2cc;strokeColor=#d6b656;" vertex="1" parent="1">
          <mxGeometry x="231.75" y="351" width="18" height="18" as="geometry" />
        </mxCell>
        <mxCell id="LL7gGCwHM5cZaGb05igH-68" value="" style="ellipse;whiteSpace=wrap;html=1;aspect=fixed;fillColor=#fff2cc;strokeColor=#d6b656;" vertex="1" parent="1">
          <mxGeometry x="312" y="351" width="18" height="18" as="geometry" />
        </mxCell>
        <mxCell id="LL7gGCwHM5cZaGb05igH-69" value="" style="triangle;whiteSpace=wrap;html=1;rotation=90;fillColor=#d5e8d4;strokeColor=#82b366;" vertex="1" parent="1">
          <mxGeometry x="352" y="354" width="15.5" height="18" as="geometry" />
        </mxCell>
        <mxCell id="LL7gGCwHM5cZaGb05igH-70" value="" style="whiteSpace=wrap;html=1;aspect=fixed;fillColor=#f8cecc;strokeColor=#b85450;" vertex="1" parent="1">
          <mxGeometry x="192" y="391" width="17" height="17" as="geometry" />
        </mxCell>
        <mxCell id="LL7gGCwHM5cZaGb05igH-71" value="" style="whiteSpace=wrap;html=1;aspect=fixed;fillColor=#f8cecc;strokeColor=#b85450;" vertex="1" parent="1">
          <mxGeometry x="272" y="391" width="17" height="17" as="geometry" />
        </mxCell>
        <mxCell id="LL7gGCwHM5cZaGb05igH-72" value="" style="triangle;whiteSpace=wrap;html=1;rotation=-90;fillColor=#d5e8d4;strokeColor=#82b366;" vertex="1" parent="1">
          <mxGeometry x="233" y="390" width="15.5" height="18" as="geometry" />
        </mxCell>
        <mxCell id="LL7gGCwHM5cZaGb05igH-73" value="" style="triangle;whiteSpace=wrap;html=1;rotation=-90;fillColor=#d5e8d4;strokeColor=#82b366;" vertex="1" parent="1">
          <mxGeometry x="313.25" y="390" width="15.5" height="18" as="geometry" />
        </mxCell>
        <mxCell id="LL7gGCwHM5cZaGb05igH-74" value="" style="whiteSpace=wrap;html=1;aspect=fixed;fillColor=#f8cecc;strokeColor=#b85450;" vertex="1" parent="1">
          <mxGeometry x="352" y="391" width="17" height="17" as="geometry" />
        </mxCell>
        <mxCell id="LL7gGCwHM5cZaGb05igH-75" value="" style="whiteSpace=wrap;html=1;aspect=fixed;fillColor=#f8cecc;strokeColor=#b85450;" vertex="1" parent="1">
          <mxGeometry x="455" y="230" width="17" height="17" as="geometry" />
        </mxCell>
        <mxCell id="LL7gGCwHM5cZaGb05igH-76" value="" style="triangle;whiteSpace=wrap;html=1;rotation=90;fillColor=#d5e8d4;strokeColor=#82b366;" vertex="1" parent="1">
          <mxGeometry x="456.5" y="261" width="15.5" height="18" as="geometry" />
        </mxCell>
        <mxCell id="LL7gGCwHM5cZaGb05igH-78" value="" style="ellipse;whiteSpace=wrap;html=1;aspect=fixed;fillColor=#fff2cc;strokeColor=#d6b656;" vertex="1" parent="1">
          <mxGeometry x="456.5" y="322" width="18" height="18" as="geometry" />
        </mxCell>
        <mxCell id="LL7gGCwHM5cZaGb05igH-79" value="$$\sigma_{xx},\sigma_{yy}$$" style="text;html=1;strokeColor=none;fillColor=none;align=center;verticalAlign=middle;whiteSpace=wrap;rounded=0;" vertex="1" parent="1">
          <mxGeometry x="493" y="224" width="60" height="30" as="geometry" />
        </mxCell>
        <mxCell id="LL7gGCwHM5cZaGb05igH-80" value="$$V_{x}$$" style="text;html=1;strokeColor=none;fillColor=none;align=center;verticalAlign=middle;whiteSpace=wrap;rounded=0;" vertex="1" parent="1">
          <mxGeometry x="493" y="254.5" width="60" height="30" as="geometry" />
        </mxCell>
        <mxCell id="LL7gGCwHM5cZaGb05igH-81" value="" style="triangle;whiteSpace=wrap;html=1;rotation=-90;fillColor=#d5e8d4;strokeColor=#82b366;" vertex="1" parent="1">
          <mxGeometry x="456.5" y="292" width="15.5" height="18" as="geometry" />
        </mxCell>
        <mxCell id="LL7gGCwHM5cZaGb05igH-82" value="$$V_{z}$$" style="text;html=1;strokeColor=none;fillColor=none;align=center;verticalAlign=middle;whiteSpace=wrap;rounded=0;" vertex="1" parent="1">
          <mxGeometry x="493" y="284.5" width="60" height="30" as="geometry" />
        </mxCell>
        <mxCell id="LL7gGCwHM5cZaGb05igH-84" value="$$\sigma_{xy}$$" style="text;html=1;strokeColor=none;fillColor=none;align=center;verticalAlign=middle;whiteSpace=wrap;rounded=0;" vertex="1" parent="1">
          <mxGeometry x="493" y="316" width="60" height="30" as="geometry" />
        </mxCell>
      </root>
    </mxGraphModel>
  </diagram>
</mxfile>
